<svg xmlns="http://www.w3.org/2000/svg" viewBox="0 0 820 900">
  <defs>
    <linearGradient id="land" x1="0" y1="0" x2="1" y2="1">
      <stop offset="0" stop-color="#17191d"/><stop offset="1" stop-color="#08090b"/>
    </linearGradient>
  </defs>
  <g fill="url(#land)" stroke="#626a75" stroke-width="2.2">
    <path d="M568 96c49 7 91 43 101 86-4 29-30 49-59 55-22-8-39-29-43-56-5-33-11-58 1-85Z"/>
    <path d="M548 239c25 13 43 32 54 58-10 35-26 67-45 98-28 45-55 89-83 132-23 36-44 73-69 106-22 29-51 53-84 69-24-10-41-31-44-58 14-31 39-55 60-80 36-43 70-88 102-134 31-44 61-89 89-135 9-16 14-37 20-56Z"/>
    <path d="M292 660c26 5 48 20 61 43-13 25-35 44-61 55-24-5-43-21-51-43 8-26 25-45 51-55Z"/>
    <path d="M197 716c25 4 48 19 60 41-9 30-29 53-58 67-28-3-50-19-63-44 8-29 28-51 61-64Z"/>
    <path d="M95 768c24 5 44 19 55 40-7 25-24 45-50 57-26-4-45-19-56-41 7-25 23-44 51-56Z"/>
  </g>
</svg>